<mxfile host="app.diagrams.net" agent="Mozilla/5.0 (Windows NT 10.0; Win64; x64) AppleWebKit/537.36 (KHTML, like Gecko) Chrome/128.0.0.0 Safari/537.36" version="24.7.14">
  <diagram name="Trang-1" id="aXrVIZnBGIT7LerLcOTE">
    <mxGraphModel dx="1024" dy="503" grid="1" gridSize="10" guides="1" tooltips="1" connect="1" arrows="1" fold="1" page="1" pageScale="1" pageWidth="827" pageHeight="1169" math="0" shadow="0">
      <root>
        <mxCell id="0" />
        <mxCell id="1" parent="0" />
        <mxCell id="Kmvjv3kBQGAHPP00dv3X-1" value="" style="rounded=0;whiteSpace=wrap;html=1;" vertex="1" parent="1">
          <mxGeometry x="70" y="50" width="490" height="60" as="geometry" />
        </mxCell>
        <mxCell id="Kmvjv3kBQGAHPP00dv3X-2" value="" style="rounded=0;whiteSpace=wrap;html=1;" vertex="1" parent="1">
          <mxGeometry x="70" y="110" width="490" height="370" as="geometry" />
        </mxCell>
        <mxCell id="Kmvjv3kBQGAHPP00dv3X-3" value="Person_Thom_17_09_2024" style="text;html=1;align=center;verticalAlign=middle;whiteSpace=wrap;rounded=0;" vertex="1" parent="1">
          <mxGeometry x="165" y="62.5" width="165" height="35" as="geometry" />
        </mxCell>
        <mxCell id="Kmvjv3kBQGAHPP00dv3X-4" value="- personID&lt;span style=&quot;text-align: center;&quot;&gt;_Thom_17_09_2024 : String&amp;nbsp;&lt;/span&gt;&lt;div&gt;&lt;span style=&quot;text-align: center;&quot;&gt;- personName&lt;/span&gt;&lt;span style=&quot;text-align: center; background-color: initial;&quot;&gt;_Thom_17_09_2024 : String&amp;nbsp;&lt;/span&gt;&lt;/div&gt;&lt;div&gt;&lt;span style=&quot;text-align: center; background-color: initial;&quot;&gt;- dateOfBirth&lt;/span&gt;&lt;span style=&quot;text-align: center; background-color: initial;&quot;&gt;_Thom_17_09_2024 : String&amp;nbsp;&lt;/span&gt;&lt;/div&gt;&lt;div&gt;&lt;span style=&quot;text-align: center; background-color: initial;&quot;&gt;- Person&lt;/span&gt;&lt;span style=&quot;text-align: center; background-color: initial;&quot;&gt;_Thom_17_09_2024()&amp;nbsp;&lt;/span&gt;&lt;/div&gt;&lt;div&gt;+ Person&lt;span style=&quot;text-align: center; background-color: initial;&quot;&gt;_Thom_17_09_2024(String personID&lt;/span&gt;&lt;span style=&quot;text-align: center; background-color: initial;&quot;&gt;_Thom_17_09_2024&lt;/span&gt;&lt;span style=&quot;background-color: initial; text-align: center;&quot;&gt;, String personName&lt;/span&gt;&lt;span style=&quot;text-align: center; background-color: initial;&quot;&gt;_Thom_17_09_2024&lt;/span&gt;&lt;span style=&quot;background-color: initial; text-align: center;&quot;&gt;&amp;nbsp;,String dateOfBirth&lt;/span&gt;&lt;span style=&quot;text-align: center; background-color: initial;&quot;&gt;_Thom_17_09_2024&lt;/span&gt;&lt;span style=&quot;background-color: initial; text-align: center;&quot;&gt;)&lt;/span&gt;&lt;/div&gt;&lt;div&gt;&lt;span style=&quot;text-align: center; background-color: initial;&quot;&gt;+ getPersonID&lt;/span&gt;&lt;span style=&quot;text-align: center; background-color: initial;&quot;&gt;_Thom_17_09_2024() : String&amp;nbsp;&lt;/span&gt;&lt;/div&gt;&lt;div&gt;&lt;span style=&quot;text-align: center; background-color: initial;&quot;&gt;+ setPersonID&lt;/span&gt;&lt;span style=&quot;text-align: center; background-color: initial;&quot;&gt;_Thom_17_09_2024(String personID&lt;/span&gt;&lt;span style=&quot;text-align: center; background-color: initial;&quot;&gt;_Thom_17_09_2024&lt;/span&gt;&lt;span style=&quot;background-color: initial; text-align: center;&quot;&gt;) : void&lt;/span&gt;&lt;/div&gt;&lt;div&gt;&lt;span style=&quot;background-color: initial; text-align: center;&quot;&gt;+ getPersonName&lt;/span&gt;&lt;span style=&quot;text-align: center; background-color: initial;&quot;&gt;_Thom_17_09_2024() : String&lt;/span&gt;&lt;/div&gt;&lt;div&gt;&lt;span style=&quot;text-align: center; background-color: initial;&quot;&gt;+ setPersonName&lt;/span&gt;&lt;span style=&quot;text-align: center; background-color: initial;&quot;&gt;_Thom_17_09_2024(String personName&lt;/span&gt;&lt;span style=&quot;text-align: center; background-color: initial;&quot;&gt;_Thom_17_09_2024&lt;/span&gt;&lt;span style=&quot;background-color: initial; text-align: center;&quot;&gt;) : void&lt;/span&gt;&lt;/div&gt;&lt;div&gt;&lt;span style=&quot;background-color: initial; text-align: center;&quot;&gt;+ getDateOfBirth&lt;/span&gt;&lt;span style=&quot;text-align: center; background-color: initial;&quot;&gt;_Thom_17_09_2024() : String&amp;nbsp;&lt;/span&gt;&lt;/div&gt;&lt;div&gt;&lt;span style=&quot;text-align: center; background-color: initial;&quot;&gt;+ setDateOfBirth&lt;/span&gt;&lt;span style=&quot;text-align: center; background-color: initial;&quot;&gt;_Thom_17_09_2024(String dateOfBirth&lt;/span&gt;&lt;span style=&quot;text-align: center; background-color: initial;&quot;&gt;_Thom_17_09_2024&lt;/span&gt;&lt;span style=&quot;background-color: initial; text-align: center;&quot;&gt;) : void&lt;/span&gt;&lt;/div&gt;&lt;div&gt;&lt;span style=&quot;background-color: initial; text-align: center;&quot;&gt;+ toString&lt;/span&gt;&lt;span style=&quot;text-align: center; background-color: initial;&quot;&gt;_Thom_17_09_2024&lt;/span&gt;&lt;span style=&quot;background-color: initial; text-align: center;&quot;&gt;()&amp;nbsp; : String&lt;/span&gt;&lt;/div&gt;" style="text;html=1;align=left;verticalAlign=top;whiteSpace=wrap;rounded=0;" vertex="1" parent="1">
          <mxGeometry x="75" y="110" width="480" height="370" as="geometry" />
        </mxCell>
        <mxCell id="Kmvjv3kBQGAHPP00dv3X-5" value="" style="rounded=0;whiteSpace=wrap;html=1;" vertex="1" parent="1">
          <mxGeometry x="700" y="50" width="490" height="60" as="geometry" />
        </mxCell>
        <mxCell id="Kmvjv3kBQGAHPP00dv3X-6" value="" style="rounded=0;whiteSpace=wrap;html=1;" vertex="1" parent="1">
          <mxGeometry x="700" y="110" width="490" height="370" as="geometry" />
        </mxCell>
        <mxCell id="Kmvjv3kBQGAHPP00dv3X-7" value="Student_Thom_17_09_2024" style="text;html=1;align=center;verticalAlign=middle;whiteSpace=wrap;rounded=0;" vertex="1" parent="1">
          <mxGeometry x="795" y="62.5" width="165" height="35" as="geometry" />
        </mxCell>
        <mxCell id="Kmvjv3kBQGAHPP00dv3X-8" value="- markAvg&lt;span style=&quot;text-align: center;&quot;&gt;_Thom_17_09_2024 : Double&lt;/span&gt;&lt;span style=&quot;background-color: initial; text-align: center;&quot;&gt;&amp;nbsp;&lt;/span&gt;&lt;div&gt;+ Student&lt;span style=&quot;text-align: center; background-color: initial;&quot;&gt;_Thom_17_09_2024(String personID&lt;/span&gt;&lt;span style=&quot;text-align: center; background-color: initial;&quot;&gt;_Thom_17_09_2024&lt;/span&gt;&lt;span style=&quot;background-color: initial; text-align: center;&quot;&gt;, String personName&lt;/span&gt;&lt;span style=&quot;text-align: center; background-color: initial;&quot;&gt;_Thom_17_09_2024&lt;/span&gt;&lt;span style=&quot;background-color: initial; text-align: center;&quot;&gt;&amp;nbsp;,String dateOfBirth&lt;/span&gt;&lt;span style=&quot;text-align: center; background-color: initial;&quot;&gt;_Thom_17_09_2024, Double markAvg&lt;/span&gt;&lt;span style=&quot;text-align: center; background-color: initial;&quot;&gt;_Thom_17_09_2024&lt;/span&gt;&lt;span style=&quot;background-color: initial; text-align: center;&quot;&gt;)&lt;/span&gt;&lt;/div&gt;&lt;div&gt;&lt;span style=&quot;text-align: center; background-color: initial;&quot;&gt;+ getMarkAvg&lt;/span&gt;&lt;span style=&quot;text-align: center; background-color: initial;&quot;&gt;_Thom_17_09_2024() : Double&amp;nbsp;&lt;/span&gt;&lt;/div&gt;&lt;div&gt;&lt;span style=&quot;text-align: center; background-color: initial;&quot;&gt;+ setMarkAvg&lt;/span&gt;&lt;span style=&quot;text-align: center; background-color: initial;&quot;&gt;_Thom_17_09_2024(Double markAvg&lt;/span&gt;&lt;span style=&quot;text-align: center; background-color: initial;&quot;&gt;_Thom_17_09_2024&lt;/span&gt;&lt;span style=&quot;background-color: initial; text-align: center;&quot;&gt;) : void&lt;/span&gt;&lt;/div&gt;&lt;div&gt;&lt;span style=&quot;background-color: initial; text-align: center;&quot;&gt;+ toString&lt;/span&gt;&lt;span style=&quot;text-align: center; background-color: initial;&quot;&gt;_Thom_17_09_2024&lt;/span&gt;&lt;span style=&quot;background-color: initial; text-align: center;&quot;&gt;()&amp;nbsp; : String&lt;/span&gt;&lt;/div&gt;" style="text;html=1;align=left;verticalAlign=top;whiteSpace=wrap;rounded=0;" vertex="1" parent="1">
          <mxGeometry x="705" y="110" width="480" height="370" as="geometry" />
        </mxCell>
        <mxCell id="Kmvjv3kBQGAHPP00dv3X-9" value="" style="endArrow=classic;html=1;rounded=0;exitX=0;exitY=0.5;exitDx=0;exitDy=0;entryX=1;entryY=0.5;entryDx=0;entryDy=0;" edge="1" parent="1" source="Kmvjv3kBQGAHPP00dv3X-6" target="Kmvjv3kBQGAHPP00dv3X-2">
          <mxGeometry width="50" height="50" relative="1" as="geometry">
            <mxPoint x="740" y="290" as="sourcePoint" />
            <mxPoint x="790" y="240" as="targetPoint" />
          </mxGeometry>
        </mxCell>
        <mxCell id="Kmvjv3kBQGAHPP00dv3X-10" value="Extends" style="text;html=1;align=center;verticalAlign=middle;whiteSpace=wrap;rounded=0;" vertex="1" parent="1">
          <mxGeometry x="610" y="270" width="40" height="20" as="geometry" />
        </mxCell>
      </root>
    </mxGraphModel>
  </diagram>
</mxfile>
